<?xml version="1.0" standalone="no"?>
<!DOCTYPE svg PUBLIC "-//W3C//DTD SVG 20010904//EN"
 "http://www.w3.org/TR/2001/REC-SVG-20010904/DTD/svg10.dtd">
<svg version="1.0" xmlns="http://www.w3.org/2000/svg"
 width="500.000000pt" height="500.000000pt" viewBox="0 0 500.000000 500.000000"
 preserveAspectRatio="xMidYMid meet">

<g transform="translate(0.000000,500.000000) scale(0.100000,-0.100000)"
fill="#000000" stroke="none">
<path d="M2800 3986 c-152 -51 -290 -100 -307 -109 -17 -9 -49 -38 -72 -64
l-42 -47 -166 -28 c-92 -15 -172 -33 -177 -38 -7 -7 -11 -58 -11 -126 l1 -114
-111 0 c-118 0 -153 -10 -170 -47 -5 -12 -19 -24 -32 -28 -46 -11 -48 -24 -53
-475 l-5 -425 -52 -149 c-29 -82 -53 -153 -53 -157 0 -5 9 -9 20 -9 23 0 26
-18 6 -45 -18 -24 -92 -27 -106 -5 -5 8 -43 116 -85 240 l-75 225 0 407 0 407
-24 28 -24 28 -245 3 c-200 2 -252 0 -281 -12 -20 -8 -36 -22 -36 -30 0 -7
-15 -23 -34 -34 -25 -15 -37 -30 -41 -54 -4 -18 -5 -225 -3 -458 4 -375 6
-431 22 -480 19 -57 306 -780 333 -838 29 -62 31 -62 468 -62 247 0 403 4 415
10 11 6 42 32 70 59 51 49 54 55 215 459 98 244 170 439 179 485 13 62 16 150
16 467 0 368 1 391 18 386 9 -2 36 -7 58 -11 25 -4 51 -16 65 -31 12 -13 44
-38 71 -55 l48 -31 0 -840 c0 -843 1 -868 34 -890 6 -4 125 -8 264 -8 249 0
252 0 273 23 11 12 23 25 27 30 4 4 18 16 32 26 l25 19 5 289 5 288 35 0 c32
0 35 -3 38 -32 l3 -33 129 0 c139 0 171 -8 189 -47 7 -15 11 -110 11 -267 0
-231 1 -245 21 -270 l20 -26 259 0 259 0 23 30 c12 16 30 32 40 36 10 3 25 19
34 36 13 26 15 77 12 371 -3 324 -5 345 -26 401 -12 33 -39 80 -60 105 -44 51
-135 106 -195 115 l-41 7 30 18 c84 51 114 129 120 315 l4 129 66 23 c36 12
80 34 99 49 162 123 150 530 -21 701 -76 76 -84 79 -628 170 -275 46 -526 84
-556 83 -42 0 -120 -22 -330 -93z m839 -17 c273 -44 516 -88 541 -97 56 -19
138 -96 173 -160 14 -27 33 -75 42 -107 19 -76 20 -255 1 -319 -31 -103 -101
-167 -189 -173 -29 -2 -276 23 -549 56 -545 65 -551 67 -634 143 -58 53 -87
98 -115 180 -18 52 -22 86 -23 198 -1 117 2 142 22 190 37 93 131 168 211 170
14 0 248 -36 520 -81z m-707 18 c-11 -12 -33 -49 -49 -82 -24 -53 -28 -74 -31
-180 -4 -109 5 -201 23 -247 6 -16 0 -18 -53 -18 -91 0 -122 -9 -141 -41 -9
-15 -25 -30 -37 -33 -26 -7 -48 -51 -45 -93 3 -36 -3 -39 -35 -20 -39 23 -70
52 -107 100 -49 64 -49 81 1 73 20 -3 54 -6 74 -6 27 1 40 -5 48 -20 14 -26
56 -26 70 -1 6 11 10 90 10 186 0 96 -4 175 -10 186 -13 23 -55 25 -67 4 -7
-11 -33 -17 -93 -22 l-84 -6 22 31 c12 17 39 41 59 54 35 22 453 168 462 161
3 -2 -5 -13 -17 -26z m-293 -201 c8 -9 11 -67 9 -186 -3 -151 -5 -174 -20
-184 -14 -8 -22 -7 -35 7 -16 16 -16 17 5 17 22 0 22 1 22 170 0 147 -2 170
-16 170 -8 0 -12 5 -9 10 9 14 31 12 44 -4z m-144 -102 c-115 -9 -261 -28
-349 -45 -55 -10 -101 -17 -104 -15 -5 6 85 24 198 41 138 21 148 22 225 22
39 0 52 -2 30 -3z m40 -81 c-106 -6 -275 -26 -379 -44 -115 -19 -156 -19 -64
0 45 10 182 31 283 44 17 2 71 4 120 4 50 0 68 -2 40 -4z m-125 -193 c11 -21
20 -41 20 -43 0 -5 -79 9 -84 14 -2 2 -10 19 -19 37 l-15 32 39 0 c35 0 40 -4
59 -40z m930 -460 c0 -28 2 -30 39 -30 97 0 131 -38 131 -145 l0 -65 30 0 c35
0 38 -12 11 -39 -26 -26 -67 -33 -186 -29 l-100 3 -3 168 -2 167 40 0 c38 0
40 -2 40 -30z"/>
</g>
</svg>
